Coordinates
version=1
nRows=12
nColumns=46
inDegrees=yes

Units are S.I. units (second, meters, Newtons, ...)
Angles are in degrees.

endheader
time	pelvis_tilt	pelvis_list	pelvis_rotation	pelvis_tx	pelvis_ty	pelvis_tz	bb_angle	bb_tx	bb_ty	bb_tz	hip_flexion_r	hip_adduction_r	hip_rotation_r	knee_angle_r	knee_angle_r_beta	ankle_angle_r	subtalar_angle_r	mtp_angle_r	crank_angle_r	hip_flexion_l	hip_adduction_l	hip_rotation_l	knee_angle_l	knee_angle_l_beta	ankle_angle_l	subtalar_angle_l	mtp_angle_l	crank_angle_l	lumbar_extension	lumbar_bending	lumbar_rotation	arm_flex_r	arm_add_r	arm_rot_r	elbow_flex_r	pro_sup_r	wrist_flex_r	wrist_dev_r	arm_flex_l	arm_add_l	arm_rot_l	elbow_flex_l	pro_sup_l	wrist_flex_l	wrist_dev_l
      2.50500000	    -32.64613022	     -7.42796433	    -10.05704014	      0.38004459	      1.22689331	     -0.23513638	      0.00000000	      0.50000000	      0.00000000	      0.25000000	     75.99165092	     12.51661450	     -0.37722109	     80.41556253	      1.40351634	     12.63514003	    -10.84708129	      0.00000000	      0.00000000	     34.97932254	    -20.31091266	     -7.16730068	     29.83960817	      0.52079941	    -26.47524981	      3.59446092	      0.00000000	      0.00000000	    -58.69970851	     -0.49477491	     10.50435021	     46.19055196	    -20.76426058	     20.44632495	     94.36605182	     50.50055549	      0.00000000	      0.00000000	     36.92251068	    -22.36261884	      8.84838951	     91.52073896	     51.38911007	      0.00000000	      0.00000000
      2.51000000	    -32.68459561	     -6.88761598	    -10.04507907	      0.38045370	      1.22852324	     -0.23433520	      0.00000000	      0.50000000	      0.00000000	      0.25000000	     75.33616461	     12.51192547	      0.35279920	     78.68804041	      1.37336539	     12.02746006	    -11.20793615	      0.00000000	      0.00000000	     35.43458943	    -19.82951131	     -6.61450918	     31.14963328	      0.54366366	    -26.18012335	      3.09621170	      0.00000000	      0.00000000	    -58.94950140	     -0.87899645	     10.27789877	     45.94188027	    -20.42821048	     19.80082417	     94.89000817	     50.40067182	      0.00000000	      0.00000000	     37.25413608	    -22.15462679	      8.83778228	     91.47760495	     51.24599349	      0.00000000	      0.00000000
      2.51500000	    -32.76075253	     -6.30729746	    -10.04476818	      0.38082245	      1.22994605	     -0.23355872	      0.00000000	      0.50000000	      0.00000000	      0.25000000	     74.70959497	     12.41702398	      0.98384946	     76.91293382	      1.34238393	     11.42785406	    -11.56118309	      0.00000000	      0.00000000	     35.94261362	    -19.30045228	     -6.07683739	     32.49140313	      0.56708196	    -25.86241301	      2.57026316	      0.00000000	      0.00000000	    -59.12579393	     -1.33388980	     10.05528722	     45.68616691	    -20.02397218	     19.10109829	     95.34166521	     50.04992555	      0.00000000	      0.00000000	     37.61722286	    -21.85433863	      8.81052128	     91.41975192	     50.75115807	      0.00000000	      0.00000000
      2.52000000	    -32.77498990	     -5.73355857	     -9.99520723	      0.38127868	      1.23129858	     -0.23284070	      0.00000000	      0.50000000	      0.00000000	      0.25000000	     73.95500114	     12.27058297	      1.62616140	     75.06290024	      1.31009476	     10.67095965	    -12.07332708	      0.00000000	      0.00000000	     36.41396101	    -18.76756886	     -5.65840738	     33.86579345	      0.59106960	    -25.39246866	      2.20650977	      0.00000000	      0.00000000	    -59.36662742	     -1.74987504	      9.82903812	     45.34701922	    -19.88863722	     18.57346350	     96.06691143	     49.95028521	      0.00000000	      0.00000000	     37.98147565	    -21.72262394	      9.01001331	     91.47177166	     50.57760722	      0.00000000	      0.00000000
      2.52500000	    -32.77968282	     -5.15292319	     -9.93013844	      0.38175230	      1.23239648	     -0.23213538	      0.00000000	      0.50000000	      0.00000000	      0.25000000	     73.16462433	     12.09071516	      2.33489250	     73.24761317	      1.27841202	      9.99326291	    -12.29176563	      0.00000000	      0.00000000	     36.94303293	    -18.27368483	     -5.42039225	     35.38995110	      0.61767117	    -24.73836461	      1.77492540	      0.00000000	      0.00000000	    -59.57407833	     -2.16827987	      9.70938148	     44.89935567	    -19.83998146	     17.93349231	     96.84616173	     49.72873705	      0.00000000	      0.00000000	     38.46941102	    -21.40178685	      9.34507522	     91.43463250	     50.26042079	      0.00000000	      0.00000000
      2.53000000	    -32.86880108	     -4.56194879	     -9.74099347	      0.38209353	      1.23313074	     -0.23179661	      0.00000000	      0.50000000	      0.00000000	      0.25000000	     72.44318402	     11.72445901	      2.96032375	     71.39475793	      1.24607359	      9.52255217	    -12.12139360	      0.00000000	      0.00000000	     37.66997973	    -17.66982288	     -5.08099400	     37.01221087	      0.64598494	    -24.12081902	      1.21259501	      0.00000000	      0.00000000	    -59.59841420	     -2.40766542	      9.30735780	     44.75377810	    -19.39982437	     17.50269412	     96.86947992	     49.55612048	      0.00000000	      0.00000000	     38.80397987	    -21.10612888	      9.26145754	     91.25447279	     50.02754737	      0.00000000	      0.00000000
      2.53500000	    -32.72850651	     -4.06471583	     -9.61453200	      0.38267012	      1.23401996	     -0.23113000	      0.00000000	      0.50000000	      0.00000000	      0.25000000	     71.39753503	     11.53523973	      3.57562310	     69.40209556	      1.21129508	      8.38543286	    -13.11511868	      0.00000000	      0.00000000	     38.13664594	    -17.29273764	     -5.11306557	     38.69298791	      0.67532004	    -23.38166296	      0.89666109	      0.00000000	      0.00000000	    -59.93686846	     -2.72889088	      9.19343220	     44.23467525	    -19.40106516	     16.89544131	     97.78431232	     49.45619139	      0.00000000	      0.00000000	     39.17689086	    -20.92114654	      9.61852781	     91.26317253	     49.84479524	      0.00000000	      0.00000000
      2.54000000	    -32.79804403	     -3.63223922	     -9.42002551	      0.38293916	      1.23438119	     -0.23060033	      0.00000000	      0.50000000	      0.00000000	      0.25000000	     70.56422313	     11.15501890	      3.89111631	     67.40486435	      1.17643681	      7.64381049	    -13.32879572	      0.00000000	      0.00000000	     38.98816438	    -16.97562662	     -5.04465186	     40.56392155	      0.70797399	    -22.62865806	      0.49664934	      0.00000000	      0.00000000	    -59.98616557	     -2.96119734	      9.54778649	     43.38848680	    -19.72281531	     15.84041362	     98.90153915	     49.39369721	      0.00000000	      0.00000000	     39.98737392	    -20.32645291	     10.52336370	     90.67924612	     49.83161025	      0.00000000	      0.00000000
      2.54500000	    -32.78620007	     -3.11250841	     -9.10285052	      0.38327139	      1.23470380	     -0.23049334	      0.00000000	      0.50000000	      0.00000000	      0.25000000	     69.61082787	     10.63593760	      4.39517862	     65.40754595	      1.14157703	      7.02245616	    -13.33094993	      0.00000000	      0.00000000	     39.77243225	    -16.46459895	     -4.98080302	     42.38434751	      0.73974642	    -21.97637508	     -0.07515714	      0.00000000	      0.00000000	    -60.03468946	     -3.04779206	      9.04682627	     43.28995323	    -19.19346060	     15.42991842	     98.77115554	     49.18016741	      0.00000000	      0.00000000	     40.18525532	    -20.01659681	     10.30632439	     90.42235780	     49.53084732	      0.00000000	      0.00000000
      2.55000000	    -32.78507902	     -2.59532816	     -8.83474293	      0.38344636	      1.23493363	     -0.23029119	      0.00000000	      0.50000000	      0.00000000	      0.25000000	     68.65549624	     10.13829826	      4.90101008	     63.38553534	      1.10628629	      6.17238271	    -13.34192510	      0.00000000	      0.00000000	     40.62056484	    -16.04040571	     -5.03207176	     44.28440604	      0.77290869	    -21.30965355	     -0.49071759	      0.00000000	      0.00000000	    -60.10287942	     -3.14641457	      8.59650812	     43.19219230	    -18.82369423	     15.15717370	     98.83066243	     49.05862283	      0.00000000	      0.00000000	     40.43099074	    -19.82506084	     10.21261885	     90.31295915	     49.34253798	      0.00000000	      0.00000000
      2.55500000	    -32.78819841	     -2.30190583	     -8.57782949	      0.38363339	      1.23495822	     -0.22986701	      0.00000000	      0.50000000	      0.00000000	      0.25000000	     67.61987578	      9.82961937	      5.23231681	     61.24119931	      1.06886057	      4.87842323	    -14.30643095	      0.00000000	      0.00000000	     41.53358670	    -15.90781116	     -5.05080007	     46.26580337	      0.80749060	    -20.51386182	     -0.55950774	      0.00000000	      0.00000000	    -60.16873394	     -3.17472558	      8.49348129	     42.78539939	    -18.83817081	     14.89523198	     99.45399732	     49.09822320	      0.00000000	      0.00000000	     40.50646119	    -19.82360965	     10.52029956	     90.37556274	     49.38750106	      0.00000000	      0.00000000
      2.56000000	    -32.82313481	     -1.89889186	     -8.23870588	      0.38376997	      1.23478240	     -0.22979575	      0.00000000	      0.50000000	      0.00000000	      0.25000000	     66.62509523	      9.29364142	      5.59808072	     59.15973793	      1.03253221	      4.12350192	    -14.13664571	      0.00000000	      0.00000000	     42.53995071	    -15.59368075	     -5.06211892	     48.25739229	      0.84225038	    -19.99704896	     -1.11344166	      0.00000000	      0.00000000	    -60.12933031	     -3.13878699	      8.11255374	     42.62814467	    -18.46432181	     14.59098517	     99.52562772	     48.97700435	      0.00000000	      0.00000000	     40.62517155	    -19.63302664	     10.47853065	     90.17148241	     49.20635138	      0.00000000	      0.00000000
